<mxfile host="Electron" agent="Mozilla/5.0 (Windows NT 10.0; Win64; x64) AppleWebKit/537.36 (KHTML, like Gecko) draw.io/26.1.1 Chrome/132.0.6834.210 Electron/34.3.3 Safari/537.36" version="26.1.1">
  <diagram name="Page-1" id="tHx_A6Q5v9zspdzIs4VH">
    <mxGraphModel dx="1050" dy="629" grid="1" gridSize="10" guides="1" tooltips="1" connect="1" arrows="1" fold="1" page="1" pageScale="1" pageWidth="827" pageHeight="1169" math="0" shadow="0">
      <root>
        <mxCell id="0" />
        <mxCell id="1" parent="0" />
        <mxCell id="5ZH6MRywdDZU9fLTYsq7-2" value="" style="rounded=0;whiteSpace=wrap;html=1;fillColor=none;dashed=1;" parent="1" vertex="1">
          <mxGeometry x="10" y="160" width="80" height="370" as="geometry" />
        </mxCell>
        <mxCell id="5ZH6MRywdDZU9fLTYsq7-3" value="Sources" style="rounded=0;whiteSpace=wrap;html=1;fillColor=default;strokeColor=none;fontSize=18;" parent="1" vertex="1">
          <mxGeometry x="21.310000000000002" y="140" width="90" height="30" as="geometry" />
        </mxCell>
        <mxCell id="5ZH6MRywdDZU9fLTYsq7-7" value="ERP" style="image;aspect=fixed;html=1;points=[];align=center;fontSize=12;image=img/lib/azure2/general/Folder_Blank.svg;" parent="1" vertex="1">
          <mxGeometry x="24.189999999999998" y="399" width="61.61" height="50" as="geometry" />
        </mxCell>
        <mxCell id="5ZH6MRywdDZU9fLTYsq7-11" value="CRM" style="image;aspect=fixed;html=1;points=[];align=center;fontSize=12;image=img/lib/azure2/general/Folder_Blank.svg;" parent="1" vertex="1">
          <mxGeometry x="21.310000000000002" y="263" width="61.61" height="50" as="geometry" />
        </mxCell>
        <mxCell id="5ZH6MRywdDZU9fLTYsq7-13" value="" style="rounded=1;whiteSpace=wrap;html=1;fillColor=none;strokeColor=#d79b00;dashed=1;" parent="1" vertex="1">
          <mxGeometry x="301" y="190" width="160" height="340" as="geometry" />
        </mxCell>
        <mxCell id="5ZH6MRywdDZU9fLTYsq7-14" value="Bronze Layer" style="rounded=0;whiteSpace=wrap;html=1;fillColor=#ffe6cc;strokeColor=#d79b00;fontSize=15;" parent="1" vertex="1">
          <mxGeometry x="295" y="140" width="145" height="33" as="geometry" />
        </mxCell>
        <mxCell id="5ZH6MRywdDZU9fLTYsq7-15" value="Sylver Layer" style="rounded=0;whiteSpace=wrap;html=1;fillColor=#f5f5f5;strokeColor=#666666;fontSize=15;fontColor=#333333;" parent="1" vertex="1">
          <mxGeometry x="523" y="140" width="157" height="33" as="geometry" />
        </mxCell>
        <mxCell id="5ZH6MRywdDZU9fLTYsq7-17" value="crm_sales" style="rounded=0;whiteSpace=wrap;html=1;fillColor=#ffe6cc;strokeColor=#d79b00;fontSize=13;fontStyle=0" parent="1" vertex="1">
          <mxGeometry x="309" y="220" width="140" height="33" as="geometry" />
        </mxCell>
        <mxCell id="5ZH6MRywdDZU9fLTYsq7-20" value="crm_products" style="rounded=0;whiteSpace=wrap;html=1;fillColor=#ffe6cc;strokeColor=#d79b00;fontSize=13;" parent="1" vertex="1">
          <mxGeometry x="309" y="313" width="140" height="33" as="geometry" />
        </mxCell>
        <mxCell id="5ZH6MRywdDZU9fLTYsq7-37" value="erp_category" style="rounded=0;whiteSpace=wrap;html=1;fillColor=#ffe6cc;strokeColor=#d79b00;fontSize=13;fontStyle=0" parent="1" vertex="1">
          <mxGeometry x="308" y="366" width="140" height="33" as="geometry" />
        </mxCell>
        <mxCell id="5ZH6MRywdDZU9fLTYsq7-38" value="erp_customer_info" style="rounded=0;whiteSpace=wrap;html=1;fillColor=#ffe6cc;strokeColor=#d79b00;fontSize=13;" parent="1" vertex="1">
          <mxGeometry x="308" y="412" width="140" height="30" as="geometry" />
        </mxCell>
        <mxCell id="5ZH6MRywdDZU9fLTYsq7-39" value="erp_localite" style="rounded=0;whiteSpace=wrap;html=1;fillColor=#ffe6cc;strokeColor=#d79b00;fontSize=13;" parent="1" vertex="1">
          <mxGeometry x="309" y="454" width="140" height="33" as="geometry" />
        </mxCell>
        <mxCell id="5ZH6MRywdDZU9fLTYsq7-52" value="crm_customers" style="rounded=0;whiteSpace=wrap;html=1;fillColor=#ffe6cc;strokeColor=#d79b00;fontSize=13;fontStyle=0" parent="1" vertex="1">
          <mxGeometry x="308" y="271.5" width="140" height="33" as="geometry" />
        </mxCell>
        <mxCell id="scAdA6XUtMIcM2TW2a-7-3" value="" style="rounded=1;whiteSpace=wrap;html=1;fillColor=#f5f5f5;strokeColor=#666666;dashed=1;fontColor=#333333;" parent="1" vertex="1">
          <mxGeometry x="523" y="190" width="160" height="340" as="geometry" />
        </mxCell>
        <mxCell id="scAdA6XUtMIcM2TW2a-7-4" value="crm_sales" style="rounded=0;whiteSpace=wrap;html=1;fillColor=#f5f5f5;strokeColor=#666666;fontSize=13;fontStyle=0;fontColor=#333333;" parent="1" vertex="1">
          <mxGeometry x="531" y="220" width="140" height="33" as="geometry" />
        </mxCell>
        <mxCell id="scAdA6XUtMIcM2TW2a-7-5" value="crm_products" style="rounded=0;whiteSpace=wrap;html=1;fillColor=#f5f5f5;strokeColor=#666666;fontSize=13;fontColor=#333333;" parent="1" vertex="1">
          <mxGeometry x="531" y="313" width="140" height="33" as="geometry" />
        </mxCell>
        <mxCell id="scAdA6XUtMIcM2TW2a-7-6" value="erp_category" style="rounded=0;whiteSpace=wrap;html=1;fillColor=#f5f5f5;strokeColor=#666666;fontSize=13;fontStyle=0;fontColor=#333333;" parent="1" vertex="1">
          <mxGeometry x="530" y="366" width="140" height="33" as="geometry" />
        </mxCell>
        <mxCell id="scAdA6XUtMIcM2TW2a-7-7" value="erp_customer_info" style="rounded=0;whiteSpace=wrap;html=1;fillColor=#f5f5f5;strokeColor=#666666;fontSize=13;fontColor=#333333;" parent="1" vertex="1">
          <mxGeometry x="530" y="412" width="140" height="30" as="geometry" />
        </mxCell>
        <mxCell id="scAdA6XUtMIcM2TW2a-7-8" value="erp_localite" style="rounded=0;whiteSpace=wrap;html=1;fillColor=#f5f5f5;strokeColor=#666666;fontSize=13;fontColor=#333333;" parent="1" vertex="1">
          <mxGeometry x="531" y="454" width="140" height="33" as="geometry" />
        </mxCell>
        <mxCell id="scAdA6XUtMIcM2TW2a-7-9" value="crm_customers" style="rounded=0;whiteSpace=wrap;html=1;fillColor=#f5f5f5;strokeColor=#666666;fontSize=13;fontStyle=0;fontColor=#333333;" parent="1" vertex="1">
          <mxGeometry x="530" y="271.5" width="140" height="33" as="geometry" />
        </mxCell>
        <mxCell id="scAdA6XUtMIcM2TW2a-7-10" style="edgeStyle=orthogonalEdgeStyle;rounded=0;orthogonalLoop=1;jettySize=auto;html=1;entryX=0.03;entryY=0.139;entryDx=0;entryDy=0;entryPerimeter=0;" parent="1" source="5ZH6MRywdDZU9fLTYsq7-17" target="scAdA6XUtMIcM2TW2a-7-3" edge="1">
          <mxGeometry relative="1" as="geometry" />
        </mxCell>
        <mxCell id="scAdA6XUtMIcM2TW2a-7-13" style="edgeStyle=orthogonalEdgeStyle;rounded=0;orthogonalLoop=1;jettySize=auto;html=1;entryX=0.005;entryY=0.288;entryDx=0;entryDy=0;entryPerimeter=0;" parent="1" source="5ZH6MRywdDZU9fLTYsq7-52" target="scAdA6XUtMIcM2TW2a-7-3" edge="1">
          <mxGeometry relative="1" as="geometry" />
        </mxCell>
        <mxCell id="scAdA6XUtMIcM2TW2a-7-14" style="edgeStyle=orthogonalEdgeStyle;rounded=0;orthogonalLoop=1;jettySize=auto;html=1;entryX=0.01;entryY=0.41;entryDx=0;entryDy=0;entryPerimeter=0;" parent="1" source="5ZH6MRywdDZU9fLTYsq7-20" target="scAdA6XUtMIcM2TW2a-7-3" edge="1">
          <mxGeometry relative="1" as="geometry" />
        </mxCell>
        <mxCell id="scAdA6XUtMIcM2TW2a-7-15" style="edgeStyle=orthogonalEdgeStyle;rounded=0;orthogonalLoop=1;jettySize=auto;html=1;entryX=0.025;entryY=0.568;entryDx=0;entryDy=0;entryPerimeter=0;" parent="1" source="5ZH6MRywdDZU9fLTYsq7-37" target="scAdA6XUtMIcM2TW2a-7-3" edge="1">
          <mxGeometry relative="1" as="geometry" />
        </mxCell>
        <mxCell id="scAdA6XUtMIcM2TW2a-7-18" style="edgeStyle=orthogonalEdgeStyle;rounded=0;orthogonalLoop=1;jettySize=auto;html=1;entryX=0.01;entryY=0.824;entryDx=0;entryDy=0;entryPerimeter=0;" parent="1" source="5ZH6MRywdDZU9fLTYsq7-39" target="scAdA6XUtMIcM2TW2a-7-3" edge="1">
          <mxGeometry relative="1" as="geometry" />
        </mxCell>
        <mxCell id="scAdA6XUtMIcM2TW2a-7-19" style="edgeStyle=orthogonalEdgeStyle;rounded=0;orthogonalLoop=1;jettySize=auto;html=1;entryX=0.01;entryY=0.699;entryDx=0;entryDy=0;entryPerimeter=0;" parent="1" source="5ZH6MRywdDZU9fLTYsq7-38" target="scAdA6XUtMIcM2TW2a-7-3" edge="1">
          <mxGeometry relative="1" as="geometry" />
        </mxCell>
        <mxCell id="scAdA6XUtMIcM2TW2a-7-20" value="Python" style="rounded=1;whiteSpace=wrap;html=1;fillColor=#e1d5e7;strokeColor=#9673a6;fontSize=18;" parent="1" vertex="1">
          <mxGeometry x="551" y="565" width="120" height="40" as="geometry" />
        </mxCell>
        <mxCell id="PMCTGa_TkbXGmHr1kwU6-1" value="" style="image;sketch=0;aspect=fixed;html=1;points=[];align=center;fontSize=12;image=img/lib/mscae/Docker.svg;" parent="1" vertex="1">
          <mxGeometry x="155" y="132" width="50" height="41" as="geometry" />
        </mxCell>
        <mxCell id="PMCTGa_TkbXGmHr1kwU6-2" value="" style="rounded=0;whiteSpace=wrap;html=1;" parent="1" vertex="1">
          <mxGeometry x="130.75" y="190" width="120" height="320" as="geometry" />
        </mxCell>
        <mxCell id="PMCTGa_TkbXGmHr1kwU6-4" value="" style="points=[];aspect=fixed;html=1;align=center;shadow=0;dashed=0;fillColor=#FF6A00;strokeColor=none;shape=mxgraph.alibaba_cloud.kafka;" parent="1" vertex="1">
          <mxGeometry x="139.2" y="246" width="89.1" height="66" as="geometry" />
        </mxCell>
        <mxCell id="PMCTGa_TkbXGmHr1kwU6-9" value="" style="edgeStyle=orthogonalEdgeStyle;rounded=0;orthogonalLoop=1;jettySize=auto;html=1;" parent="1" source="PMCTGa_TkbXGmHr1kwU6-5" target="PMCTGa_TkbXGmHr1kwU6-4" edge="1">
          <mxGeometry relative="1" as="geometry" />
        </mxCell>
        <mxCell id="PMCTGa_TkbXGmHr1kwU6-5" value="KAFKA" style="rounded=0;whiteSpace=wrap;html=1;fontStyle=1;strokeColor=none;" parent="1" vertex="1">
          <mxGeometry x="141.2" y="319" width="80" height="20" as="geometry" />
        </mxCell>
        <mxCell id="PMCTGa_TkbXGmHr1kwU6-6" value="" style="shape=image;verticalLabelPosition=bottom;labelBackgroundColor=default;verticalAlign=top;aspect=fixed;imageAspect=0;image=data:image/png,iVBORw0KGgoAAAANSUhEUgAAANIAAABxCAYAAAHXFs2UAAAAAXNSR0IArs4c6QAAAARnQU1BAACxjwv8YQUAAAAJcEhZcwAAFxEAABcRAcom8z8AAFg/SURBVHhe7V0FeFXH1s3r66u30FJocYi7u7vjbiEh7u7uhAR3d3d3KbS4u7sECTGkvv7Zc3Mu9yYXLX3w/t5838q558zMsT1r9p59ZvYouLu74/bt2w3g1akXTGy8ZKa9KWRerKqqEgo2CRg2czWUdWwapL8pnvtkeyalIqB/TzyorJaZ/ibgFyu0a9wg4ebibByZkdHg+F9B3cW+ljrolq0B22xtXJuXDecELam0vwIFF3cvrByeiIerivgB90wdOMVpwT1bFx4FRugT6QG3QqMGBd8E/Mm2DQ3B2slFsE7RQm3lI9hlqLILGcOj0ASdo+1hE6Ims/Drgl+soJ7MukS4wC1DH/bB6jg+ORZ37tyRSn9T8ItlWTeSOuiRqw+PbC145OijLMINq3N64d7PT3H/919xcuI0bNa3wQ8e3VFeWSlV7mVocLEqVtWd4zWZzLRhG6IBz3wdfvzWrVuora0V5xNAxypf4aL6+vqii2VaPbuYY6Q23NM1YZ+hwrc2gc/kpaCggC1btmDz5s389wcffMBBN+Lp6QkLCwv8+uuvqKmp4dsNGzZg6dKlPC8vX/9iGm7fwrPQEGGZA+GepQOHSA2Ul5fj4cOHzwqxLe0HBATw37q6utDT08O9e/f4fnV1Nd+SrGlL4OWaNm0KXR1tBAUF8QOPHj+B4leiRJWmn6CW7ZeX3+X7fxUKrq4usLe3h6+vLz+Q4tASGY6t+O9cl9boY9AMw7zbShV6UyioqakhJDgY6qoqCAsLg5enBzw93PnvpORU+PkNgs/AgXz/r0JB1h08fsyI7TkQly6eb5D2ppB5IQXPUvSLL4aCWWSDtDeFzAvNTuiMraNiEd3drkHam4JfqLqmIUFXr1iKWbnBDY6/KfiFah49Fh+ofFgJ1xRtXF6UC4cwNcyZPkWqwJtCYXGuL26uHMJ3eka6MNLqwi5UEwUjDWEfydRKpnaDQm8ChfuszTs5IQybCvvBNFjEI9JdrtToMlXiGCtqA/8q+KujlkDyoGuiBtxSNOCSrIOZE0dIpb0p6mT07EJZZUlwz9BiLbsGPPKNcHl+Jj++PzYVOxw7Ym9gFG6zhvXWtWviMq+CBheyHqQOiz6KcMvSgGO8rvg4qQlZ6oNALbqs4wJOnTolulBVzSPxQY9CY3jmaMMqvj3sY/Rg1kWRH6eTEY4ePYrTp0/jl19+EbfW1LL//vvv/PdXX30lbsFJCzx69EiUj05SUVUjvpDXEFP22tThlq8Br2JjWMS14MeFwgS6IG2FMvSktP/48WOYm5tj5MiRqKiokMqjEBoaChcXF/GBjlrPzLQr89+eHaiQkJAAGxsbnDt3Frfu3MXELu1xYN9eHGGvqNi9DYoYgkyayCz8OlCgJrz5d99hoI8PYmJjoaGqiISERN60R0bHcDWRkpbeoNl/XXDVLusO6mPHju1Q1LJisIaang1U9J1g6+ULLVMPmfnfJV75oQgffvgfHJ0YjbMzkvDTqAj06dOb125Zed8lXuuhHjCG3FiajyXF4bi/thRbSwNk5nvXED8Udayqa5+1SbJgHtMOWwp9cX5GIvaNCUevWFOsX7teZt53CQXvDh1weGwokm2aYcu8MQ26M1fOX2U9EB3e8HqUmMMlSRPdBhlxu92inyLXzqRifn76q1S5dwkFDyapdUWDcO7MaTxYNxQ3lxbg3Mwk2CSzm2ZqyqPYFKHpA7BuwyrWtdKBc5ohXDJZNytXF56ssf/jV/AOJfUXqqrenhPgr0Ci+jWWsiZqqqX1q2uWOpcWSWXBIicuKZKSZ4EhHPINUPXgmZZ71xA/VDbri9bUM5EEkJ72KDLhD+RVYsofhvZJihemp6F22zgsLwoU51+h8BXrJD/BkfwhuPPgPk5OnoGrh4/icN5gbLP1RDlrcMqrq3i65HXeFsQPRR1sSStJElreTbkhQwane54BM88YWPWz8VdFh2hb1vW8L85bXlUl+l0u4mZ5ZV2Tz+yPe6ybRA9Dvwl32b5Q7m1C6qGqa5/1AwTUVj/iEiKPj7WvEtyLDWGTpsIezJCb7B65Bjh65Jg4P/Wt165dK+7o07EnT55wiM/JDCqSPv2mPE+fPhXnJcOKDC3JvHfv3uVG2f3797mDQDAx6Zxk6dFvOgf95oaZ8FDkMHhYj0cE86g2vBHwzNNj1c0MZuEtYZ2uBvccPZFhnaqH7T9skypDNyi4RoyNjfkD0A316NFDfPMLFy7kN0/7ly5dQklJCd9PSUlhplMC4uPjeRr9TkpK4mn5+fni85NdJ+Qjc1c4L09XUlJC7969McyjBfr7DERI0DNuEOitnJ6ahrggRyY10RukY/MTe2L94EA8efSzVP6/CySh0tJSmWn1oWBkZITo6GhY6GvCzsGJu2qEqkHw1f0CyfYtEWndAg8eVIiPa7X4HAGm3zHu3EW40Zc8Tx/z9uL0dwle/dIzMnh/wNLSEgMGDEAas5QpcXhpMesbfIu+hs3QVfdbxIWLpEjdIjvlxnBW+xqOql/DXf0buLDfpu0a8WomeYF3Ad6TehVQldu8aSPMHbvD1mMA4uKTpST3vuCVH6iFsinvdqhoW0GZwdypNxw7BqC25v2wIAS88gP16tGLGYil0O8eh289kuFXOBPtlPURGZMgM/+7wis/UHV1DdL7OeLk1HjcXJiB4B5uCAsPl5n3XeKVH+j+w2p0ttFFb2dj3F5RjNWDgzEnvqPMvO8Sr/xAhLVlEajeNAKVm0bh2uJcVDKpycr3LsEfqJKZQf10vpKZQRIrFy/A7gmJOLjnR5ybnYp770EzXR/iB+qr/aXMDAL27PoJpv7KGB/XFSemxGFdsQ/r7bZ9L3SPJMQP1EfzM5kZCMn5EawrYQq7YDWcnpyEm8uL4BmlDbcMXbiWGOIuM1JllXsXUJjFeqzr8/thgO5XOHrseIMM5iHtRNY2WeE5uqx7rgyHwaxnm8W67jn63IC1j3zmnH3XUNg3zA+X5mehgnXRCYePneQJvzz9lXUXWL+IPQi3shNZh49Z4LaBqhg72RwerKtuF64JZ+rpsm76ytXLG5z8XUDh1OkzWFvsj01TinBqbiYuzsvAidHB/ObdMzThWqiLR7VPWP9IkXX+dGAbos67F45xetDt1QIdo2x4/8ky6O18xfur4Byakh0KF+0WWDs8FitLI3FqbBjrD7HqFG7BbbjrV27wakd9JNtQdbhksM4ek5B9oipsA1R4l50Ub/2TvwvwB3pY8wj9NT8RH7x7T/oD7enjp0V8yWM92EjWGNDvEnO4pmrDhXXZdcObSeV/l6h7oMdSD1Qf1C12LzSFA6tuTskG7EFYj7bQEOkxLrg6PwO7tqyVWe5dgD9Q9aMnGKD1/AfyS+7GeePBuuFOCTTSRMQvhyxNPFhXhn2TEpmSFXUl7j6qxd3qamyzdcNWU0ccTM3hjpIfu/vgWNlo3K2twWYdS/zUzx9nl6xocK2/CvED+bzggTyIT+TSYq2ZcyJ7sGJT7rejhuPMzGQcnBCNirrRSOtaa2JtMxWsb6uBU9Nm40BcGq7s3Y87Dx6gnH8MuIVt5s44t2yl1DXeFl76QE8eP4VriqbI61NoDK9+drwZd4zS4A3H40dPpcswadC2vOKB+Pfd6ircFfpN7Bj9vvfkMT8uLveWIH6ggc95IIuuKrBhLZl3qTE88w0wpCSPe1OtA5iEWDO+dvUyqfzCV09J99XzQGaT4Kai/PXTXxfk+BE/kK/2pzIzWcWKFCf5usn8OXHoBJeQWyZTtLn6cMpQlsq/atUq7qtr06aN2LUl6V+j8TGC3448OuRfa9y4MR+gQ8doX7AP6XuVkFfwy0k+uHBearRon8qJH8hPp+EDPayo5J5TqmoOUUwi7AEeP/yZNxDuGTqw8lFi9p0Ku7D0cKXt27dj8eLF/Df5z37++We+pZuij7T0UJ06deIPZGpqyj8pU97PPvuMP1jz5s35jZPT5rfffkPXrl15+aqqKnTu3FnsrKRytN24cSP3B/Lr0T96oEE6DY3T2srH7IZV2YOwVo0egvHoz5/BWzsCccvMV9qFRTekqqrKf1OVo8/P9LtFixbYuXMnv0F6q3Qj9EAPWGNBvykPbcmZmJiYyG86MzOT7ycnJ/M0KkflydGoqEjfdhM46IEESYofyF+34QM9ZscdItUZZwzgVWQIZ2Zdb9m8GZ5F9IlFGw7RrOrlG6N7qKu4DF1YAHlLlyxZwn//8MMP/IZo5BXtU3UsKiriHlLhWzvdFG11dEQDOFRUVPg+r0ps+69//Quff/45P8+0adP4sZUrV2L9+vX8BfDr5+Tkws7RCTEWTRAaEoxKwQlfh93bNmH5sBjs3bOHn4iO/frL79g+NBzjEnyk8v6doJuXdbw+FMjHTPVSU0MDPXv2xPlz56QyKDVSgJ3iV3wMm3BsyaIFuL8iD2pN/s3339Zgx7cBBarH3bt3R4xVM06+jLRUceLkkSWIt22JBLsWCO5gLT6+bO40aLf8AoqNP8DMEQVIc2iFSKvmqKjXOLwLMAkNQd++faGto8tbnri4OHHiQN0vUerZlg/wCzZtKj4eatoEIzq0Q5xtC/bALTC2Uzs+KPDYsaPiPO8KCps3bcDAgQOhra0NLy8v7sA/eeIET7RTaoQeek3RW78ZPDW+EVctw+Yfcd+2m/o3cGXw0GgCO+WvYaMnrZPeBfhQF2ombW1toKqiDFMTY0RERPDhKaFh4TA20GPQ5b+FYStp6RmIjolFSGgYH7rZp08f/juKvQwhz7uC+APY28MdbN26BV83V0d7LSu017SEiq4dDKw7w8qtP+y9B8GhYwDMXfrB2rEDapg9J7SecsjGWxfS6NFjoahtDWUNUzTXtMGnFoOgYBaDUdMXwSU4H3YDM6GoaQojC1cY23WFjcdAxMSnyDyXHCL8DUy6LTJJ//VvfPKBAnaPCMbo6G7oaG+CDz/6GO3atoGGli76xhVBwT4bzi6e3HaWdR45RPhbhHTp6jX0sNXC8ryB8DDXxP4J8bi6MAfXFuWgJKQT/L0sMD66Cwp8HFDxngwmep/xtwiJrIvJY4ZhTnp/3Fqah6fbRmNRQQhqt4xGzYYyLqxpib2wYMZEllf2OeR4BikhkfE8PCUURcmRfDSnZMbXxZ075Vg6PAVXF+Xi4bpS3FhagEcbh+LuyiJcWZCNbaX+eChn0StBSkj0KazA7mv+wfJlo1dfBLLWHlU/xtjJIxDS05w7kC/NE33rODszGTuHBSO1IIXleSK37F4BDYREw4v7an+BmjcQEjnNps2cCKdifdhF6cK7RB/jEjvjyJR4bB0ZhXVlYTg0JRHHJsTAPkOfOwCdElQRntRP7HCToyG4kB5UVGLf3j148jtQYNsIfTQ/fe7wzoa4hSe1T9E92pn7wEXDpmn4pzZMe6rAs9AIDkl6ODWVhBMP6xRN/kHNJYF85nqiubQ0BjZfGzPnTJZxfjkUaH7onJH5ODUllk+ROLhoBBZlD+SDSG4tysK6eRNl+uNp1NnYCUNhn6PBPyXRJ1j6oulBLz2XCapuIjPBMVYLloGqsInVgXsOY1AeS8vR5QKk/CRQ7rTNNYGxX0tUS8wpkoMJyc7BEacmhOHavFSMLC3GhUXF+G3neCwsCsXjbWNwd/UQnGd6ZO26xbh97yGyh6ZAu09zeA+zqGOBqehzc5ExrCPV0CvaHZ4lZtxb7pKowaei2UUyQZSawTXfmOXVh3OiNv9wQ4IaOrEQy5YsYedh+3misclWIUp8BrSsG/4nQtTcMatufV4fXJqTgiW5A7FnXhkOTYzjiv7crFQ+iO7QuAgcHx8J+xQD/iIdo9X5bDnzRCXs3L5DrFPSB8fAc7AZHCPVYRPMmrZCQ7ZVxaKFDogo1efMsuyjCOdYdVglKePGxVtwydMWC4jmwM+cLW/2JCFlOFQ/+RmD7b7iwwB+/gP8xVOfh7YUxiK/sBBWce0xbFwhaqse4cH9B1InW75qMWOKSIjUrPGXXmwG22B1xqy66T95LJ0+SucbwTlNB24xTHDZOvAsYAzLMMDaVX/PB+f/ZUgJicZp0OwdElL9+cCvgutXb8AypB1cUljzRpNgClgzWGgASx9l+BYZwpWGQdA0Jj54RRd28ZoICrPAj0NDsKAsnQ/sl5vkDSHNJGbR5Vg3wgAmpOfNSHohrt2BQ2p7bjh4sCbPg+kgt2RNOMURo0zgEq8Bxxg9eJaawyFUAz3DTHBhTirurByMq0uLWBMbj+PHjjQ8LxOceHIP+33v6RM+IuJO3RBFvhWMG8r7qJan0z6Nf+EjK+h4LTNIJMq/buiQd4UGQqIpYzRI6HWFRPPfrFOURHN4yGIjMIvNc4gZY5boczt9ZhcNKmJsKmYGB2NU9whT3FtZjI3DwrF1wTicmRaPXTu2SJ37pz6D+PSyK3v2sRf8GEcKSnHn/j0cSs/HQwB7/COx3dYTD/74HVvNnHGb9CMTBo3doTguN69cwY3zF/j4HRLMiTETcfmnvbj5mhP03xUaCIlmi9E4oVfvJ93mM8nMY1XqBMTMcZrMSEIhNrFjBp5t4EVmdy6z4OoGSnkWGcEisg3Ta7VYMZJZj0NCsGxCAe5VSH+1PxCXjgomCGLSxS3bUc5e/KHMAtxhgiBmbLVw4cygADsbVYxw68YNbLP1wN7gaJycMA3b7bx4PhLyZl0rzqwfPLpiX3gCjpWNwu336AP58yBTSDT26VWFRDpk5uwpTPewZoyZ4Q6J+nwslCeN2WWC8hxsioDYvkxwRvBkTR5Zdl4lJhyuOcawidRCUFTf927I+LsGGWw0MIeHHZIlJF/tT/hvyULPA53MP7WbaPI200VejCEUmsOkuzI8qIPKTOo502fAtYhZe6yZs43QYaa7kajJowgorMnzTe763AFswvAmWaARR7LKvCpoqAqdR5izSUOovvjiCz5wh4ZX1c//3wR9YxsxYgRyc3MbCimTC+lTVNU2nCArC/uZnnCjUezUjLGmjfo7xB4aakwdXZccTdy8eBMWUa1EeoilWQ5QEZni1DRSR5j1pUZMKJR5fklQhUhPT+cv9hrTJ8RiEi4No5EU3uzZs3l+Sr/Bmj/JNAo/JXxkFMrRX8uWLflvYYwcgUZkffvtt+KyNAqLjlEanePLL78UpxkYGHBh03HaHzx4sDiNcO7cOX4/1J3JycmRShNGhK1bt47vZ2dn861QeWQKiQYSVkrElXkR1i9bz9ihBit/TdbMqcM+Vh92gUw/UV+JGQ9kTPzxFLCMac11lEhnseaOdYTJyiPmeRTpYt/ufTLPT6AHEIanBQYGillHW4pG5uDgwAVIx6h5aN++PTp27IitW7fyMsJISwKN1qRjNAyuvnDbtWsnjhhCL4iO0QvNyMjgoIFhdIzG+9G2kPUbhTQ3Nzd8/PHH/FqUNmTIEH7fdC7hGMXfobGHFD5MKEfD8yht7969fMwg/Za8X0JDIVk1wiDdz2TOypYEvZTo7ABuEHjS5BdiEeugcs8BNWXMeKCoROvWrsHt6+VwzFSrO27CBWgbpA5rP1VYDlSDQTdF7Ny2DZWVDZsYGmfYqFEj/Pvf/+ZTcHft2iUGzeA+dOgQfzAaR0i1eOLEiXyfmCaMRyT/JDVflJ/2g4NF8bkEIQk1tqysjO/fvHmT64NmzZrxsYw0IpVGnPbq1Ysfp3sigVhbW/PjBBpmRQIWQtYRzpw5w69LLKN9YuGePXv47wMHDvD7O3z4MBcUvU9BSMLgTgEKVAMuXbrIT/Y7o32G5Vfw1/uMM4lqajmZsxIFGuD6HVhGK8M+RQM2wSqwC1aHY4ImzGLbYsfWbbh29Rqv3Vs2bIZ21+awitWGdYQmbMLV4JarDYvolhg3dTge1zxFRUXDuDdUG+mm6QHrg84r5KEXRfqLBCXUYAE0iJTS6j88vXA6Jpmf8koeo+aJyhIE15cAur6QJrBbEBIFiiJhUpowvloAnZsqBqVJ3i+dv/79EBS++eYbLkmqXdREaKirQ1dbE65MeDQ6nMagvShoEN2oo4kmZqX1xZbh4ejXzVvc9NQHfe1ND+uL6s0jcX9NKRaOKZCZ738Z9IKpAr1Na1WBxlET7WnwYNdu3RBg3hKRFs1g7+TCx7QGMeEtX7ZUZmESRvn9Cug1+xAdtZrwKACtP2dt6m+/y8xfWpQHo7ZfQvXb/8BZ6UuofaOAu3X+vyvXbiDdtwPCO1pg7pRx7+Vc23cFBWdnZ26KxsbG8jbXxs4efbS/gq29I7p06YJBgwZxltU3Sekrbi/V//BYE4M92mB0x3Z87C4NNg4y+RYHDx6Qyn+fCSO2oynPM727IoZ6tUUKy9tV/Qsk2Lbg0drGdWrPx/7S2N4g429w6vRpqXP8U6HQsVMnZGdl8dkK/fv3h5OTEx9vbGVlhQ4dOsCHotLFxGBIyWCpZox0VlfVjxFu2ZwLil5sqgNjoVVzDDBogoNMMUpeaNPaVfAxaopo6+ZIsmuJOJsW8Df9Hr0MmiHA7Hu+T+Upjc7ZW+tLlEsE8fkng1t3pPQ2bdzAmrducHR0YhaNLjcVPTw80K9fP0RGRvKpJ8uWLuGFSFiD+nSFVrN/w6DV5zBs8wXDl3xL+1qs+XMy1ZJStBvXr0M71hSqNFaARpN/QfPbD3g+3e8/gm7zjzn0WnzCt3Rc6SsF9O/mye7tJYbLPwAKpORkJfwVkDFx5/ZNZGXnwdTWG7aePjyqr4VTDzi7d+Ghmx/VNrTC5JCNty4kCrPs6NoBzZWM62JmWkHLxA1mTr1g5+ULhw4BsPf2h7qRO2bPmt3ArJWjId6qkKg/0EZZD0ra1mIBEYwtXNBG1QTtNK2hb9UJ1u4DmLD8YecdgBEjR8s8lxzP8FaFRB20Rt+rQ0mLCUnNEI0NO+ND+xho982DRq9CpBaOgE9QFLQNbBiTXGHh3Af6Nt2Z5fj8fpgcb1lIpGNOHD+Gz1Rtmdk4EgpOWfiXeSjcg7LgHJiNwkmLUTB1FfpnjENQWBSfu9S0rSGfoyTrfHKI8NZ1Eglq5sxZ+JeCAhakdMeS7AFI7OeG9q1b4qvGX0NfWwOaVu74ttcIfPy9JnbuFHmAZZ1LDhHeupAIP/20m/uvLs5M4GuhnJqWiEtzUnFtfhrGx/dGBw9XBPgNxK2bN+UCegW8dSGRQ3Z4SiAX0pIcH0yI64GbS/JwbVEuFuT4IranI34cGYZGn32EzSsXyTyHHNL4W5i0cvoo9HIxw81F2RjQ2Q3bRsWicsNQHJyWjq8bN0LFynx0sTfEqtnjZZaXQxp/i5Du3L2PKYm9cXJGKirWDEbN5pF4sGEEHm4YhtqNQ3FrSQ4K/d1xX8anCTka4m8REuHgkaO4tTgH5asG4+LiQuDQLFRuHIHbK4pwbWEWNqx5+3Ge/r9CSkib163G6CwKerJbKtOb4PK1m7g6NwW3lhXi0aZhuLG0EFVrB+P6knxcnpeBdctFsXnkeDmkhDRnbClynFti2aL5UpneBBWVVdg0eBCuM700bWguThw9jA3zJuLqgkxcmpWII8dE0TzkeDmkhDRv/FAupKUL50llel1QhNKjh4+is58XjkyIw4U56XyGxoU5adwUD+rhgEP7D4o/f8vxYkgJaf6EYUxIrbBo7iypTK+DRzWP0S/GC3bJWhgQZ4qNJQOxbWgwTk6N40OIR0d3xsY8HziWGaBHiDsqH1TL+0ovQT0hDUUuE9L82dOlMr0K6EU/qnoC63BNeJeawy5CA44p2oxJ0TgzOw1rS0OxuiQEx6YlYGRiJ3gMMYONrzJMw79D+Q3ZAyPlEEFaSOPLuJBmT5sklell4Ey4Xg7T4ObwyBENenSO14JpdyXERdnjLGvuKGjz1cV5mFswAFaRyjxcsNVAmlNrDKcgPVTcrZAz6jngQjp97gKOnzyFpZNH8OZu1uRX72TSV9pD+w/BKr61aN5r3XpQtKVojO6DDTE7ux9OTEtEerInXLI0YBuiCa8CPXhkaopGvmZqwzi4NWqq/nr8y/+PULh2/QaOjg7AsXGhCO9ohkK31sgM749Ni6a9dJHq2ppHSCuMhlO2hngWBd/WTXKmQflWvqqwjtdgesoCnvm6PPy5bTjLk80EKcyyyNWHW54Odu/46bnDwf7JUKh5/BS7ygbhxJR4nJ+dCj8PUzxYzfozrGnaNzYCN+80tMCoWaq8Xw2rYIqOaSge082ntmSTkIxF0zEZm7yY7jHv2R7mQWpwSdJizZsRn31OI175wH3GPg8qzwRln66G2QtmNLjePx0K2+aNxtGJrAM7NhqL581CzYZSvtZE+Zoy3F1dgnXDY6RiQVY8qMDen/bAPJLpn7rJyLx5y6SXrcVYogsbPxU+JZOCadCSXrQ6Qs15P9inMQHm6vIYDrZhOrAbpAa7aJqeKZp4RoI2662GavnMcyko7JqYitPTE7F/ThG2jUlAxepiXF9Zil93TUTF+mG4u7IYq0an4czly1izfg08EixhFaHOBcSnrtCWMcepUBdFo1PhlMOERc0dE45dkCq8yszhlMBYkm/CdJA2bGjuUiEJVwtmiW34jAazgW15Gc6qHC1s3Pj+Ld74LqHwy29/MNO7jAfW2DktD1euXcf05D7MGivmS9FcXZTDwwScmhSF4fFe/GW6JDKFn0Xx2oktZjCLVsSpoyf5EoaW/m3hEKHGGUbLPXuXmcKR7dNYcQ/W/DnGi+YnOcVqI78sGxfPXoJzATGMNZXUTGZrYsP61TJv9p8Kbt1tX78KZ6dE48CEWEyM7YYfp+bg6kL2ApnpfHpGEo5NisH+0WGYldYTHjRVhekda9bH8SgxRs9oVz7YnvQUba0S2/Pp/rah2nAIY0wabAyrIBXcPt4PDsSmPANYD1DiUZ4nzh4Jz3DR3Fne5LFm0zSwBTNInnUL5KgTEg2O3L13H9bl98ec1N4oHGCHraWBmD00HesnZGN1wUBsK+qLUYkd+SQwt2x1qHVphqVLF/Lhw3QiGprVO8aTGQWiOA4U8YReulepGRzjtFm/SLWOKcxoIP2Tp4+sgmSYs6bOLkydnZM1m8X62LZ5s7y/VA/POrPsxYzMSUSRe2sMG1LMv/WQOUy4z4wF1iqimeXH6BxtjyMHDjPWSE/RoHhAVlFK3IAQJjiTjiEh2YeowJ01i8QWzhgSIhO2bwBjZh77XUQL+ehAv1sb1MhY8/+fDimPw4isOOS5tkZpQbZUJgIJhPxyz3OKEqM8Qpny51Za3ZbpL898PbiEaWLCVCu4kZDqDA1imUlf1mQya8+BmeQ2aaoISffBHRnn/qdDWkg5CVxIQ/IypTK9Cqi580/sAZc0AzizziuFq6F1h9yzdeCaa4R+5GEgY4O8EhQVhTV3+p7tMCmlK06NCsODB7V87QhZ5/6nQ0pIo3KTuJBKckQrk74ubl27wzqkOjzqiXuaBl+KyLQr+ecMYcsMDddUfbim6ME+QBU2Wdq4NDmOL3qzeHA4Ns4dzZdulXXefzqkhDShrAD5TEjF2c8WQXhVEJN6Rjkzy09HFCZtsBncUjRhxSw5zxJmbGSQ8aDLYze4pBswk1wbR0ZHcRO/hnWeFxYEYnFZHO7VCypFoEAZ4t+VD0WL+FAYG9KJDDxETZ1+pCAcPCRNFWMlO0aRU3jZuumSwiJAFKBDKPO+Q0pIE4cWciEVZiZLZXoV3L/9APa5tLwNecGZBUceCGbp2cVQJBTGLIrMVedM5Z3WQhP0CTbCreWFeLJjHBbl+ePAxDhsXNXws/qP3Qbg4tYd/Pfu/kF8Xawfe/jg+slTuPfzUyxV+Lc4VtBWUyccHzkeW4zscf+P33Fqmujb2KVdu3HrylVsNXPC0SEjcCgzX7Sik8R13ldIC2lYERdSfvrrrXJLYaOjs/1Es8+pU1o3G50EwleK4oE4RIE1uHVHQioygVO+PvaPj8e91SX4YdNKXJiZiA0FA6TcUFTjKbzMZj1rvsbXnoGhuP/brzyUzd7AKBzKKMAD/InTs+bh3NKV4hXjKSjUXcamE2MncWGeX7sRt65exQ7HDrh25Bgu7977PxGyhiAlpEnDB3Mh5aXGS2V6GWorH8GSWWdksRFDOJs4W4z5qvVuGSKhCALiMVqZwMwjlXFtdirOz0njnzJOTIrCuhULpc69PzoZB5KysKu7D25euoR9oXH4wb0btjt4MeEAqxu3xj6WZ/XnzXFpxy5x80bBn0hIJydN48GfLmzaJhbS37He2d8JKSFNHiESUm5yrFSml2HOguk8pCdv0oSAGuS/o+aNHXNNY8Lj/jyRr4+aQvI4JKRGYMOK+VhbGoaVpRHY/dMulEvU7ntM7/zYy483ZSSQjWrG2N0vEPd//YWz4OSk6by5I/1089JlXP5pD3Y4d8KBhHTW3Nnh/u+/4dR0UXQU3twxIW0zd8H+2FTsCYp8pq/ec9QTUgkXUnZStFSmF4H6T3Nmz4BzAhMEfaZgVhtnFAmDPgAyQ8EtgzWBrLkTeSL0YNFPkcdhdc7XxJG9B3H33n3Zk8lI8TNGCPs82hYzHASFX/6QGRSC8qe8NC2fGQgk1Dt1Kwg2MBwYi0iolEdc9j2HTCFlJkRKZXoRHtc+gWlAc+5ZcM3Qh1WgFm/eeORIpptcc02YOU4MMmCM0oNTrCY8B7OmjzHPMckATkG6OM10hqxz/5NBgUCEiitTSBlxr76i/JCyQs4M6wAN2IfWhaZhHVWneNH6mS4JuvBMJFbp8AiSrpmGsAmgVYP14ZmtBesIlReGmKabFULDSEJW5JPXAZWl89T3oNCxFwUX+W+AAnVQaAYKxcPD8sgSUnpMqFShF6HibiXs0xS5mU1BneiTuGV/ZiykkxPVEPZhKuia5MKFRx5xEhS3/Eh/McPCPkMFFXee72lITU3lMzRkoX44mNcBhYyhc8ya9Wz42qJFi/gx2krmfReg+zp48CCPoSEtpJEiIaVFiwIkvQoWLpnHXrZI/5ChQJYdb9IKRXrINckUmSPixDrJ0qcujJpgZDDhuUaYcMbIOv+RI0f4GqiENWvWiKNs0TJqwngIigdEU0HpWeqfh/IIMXyIJQL7BCHNmTOHH9uyZQvfHz9eehAOxfqhsnTu+swV0ujaQho1UXRuui4dpzxC3CEBxFS6F0oTmjQqT+WIRXROeiY6B5WtJ6QhXEipkYHiYy8Crb9qH8SaLmGMA0XgYhacla8aExjTO4wpHaLMUDYuX2TdFZnCLYflo1FCFPQ9hwmWwSZBiYewlnUNSQjrrmpqaopZRC+C4iPRcULr1q35w1MavQxam09II1A4M+GF0D7FxqOIWfQ7LS1N/ELpBY0ePVqq7IoVK3hZerE8WKBE2o4dO3jahg0b+D6tISukUZAtIaIMBYh6UZy8CRMm8K0Qs48gU0jJEf7iYy/Ctq1bmDBEL5oMAWIF6RmbANZnYqyhftGg3J6YvmgiFxKxh5yrFgMpsDvTR4PUYDNIGbZhSti96yeZ1xBA90lRHSmkGq10RsfogT/44AO+UC4doxffqlUrNGnShNdEeun0wPRSKb24uJjv0wsRhDRq1Ci+pQgwkvqJQpzR8StXrvDKQUKgfRL8pk2b+G8SKKUtW7aM7xM7Nm/ezH/T6pUUt47CstE+3YsQwYuizFAaxc0jgXXr1k0sJAIFKZRkn0whJYUNEh97EaqqqmHWWYMJRQ1Wfuqwi9KDpa8GPHPJ9cPMb2YspA+Lw7CJhSJmkUeCsYt8e/Q9ifpWnrm6cAzXQ6WEl6E+qAmzsbHhD0AvVzjOmwJ2jF6OZH46Rn+0pRh2QlNENZaOUW0VhESgmHa0vXjxIs9LLKK4SrRoMUWCoeCBFICQ8qxevRqWlpZ8keP6gQUplp0gJCECJZ2PmmaqYPSuKU0ymCFFpPnoo4/EgQsDAgKknoUgJaQpI0u5kBJDBvIblcxYH5ReOqoA9pFMKDkifxwFwvXIoKaMbQuMeZ9p8uxxyBmVzFnFvRCkj0iAjFUuKdpwYtZfrxhPPgpJ1nUIQtNy+fJl8QsnCNEkqYYKxygYIR2jP4qlmpeXJy4jCGb69Oni3xRMkN6BkpIS3xdeLgXDoqCEtBQqrQQdHx/Pf5O1ZWtrK7VKNKXRllaPFoQkGf3R39+fN8nUDFMaCUcom5SUxOM6CQIcM2aMuJwAaSGNEgkpIWjAS4V0v/wBzGJb8JfPBUJ6qbjO60B+OmZA2AWq8/EKA9M7iZo/xiLR0C8dZkAw9vkow5KZ7iGxA3Dv9rOV3CVB64zTzRcUFEhFjaQgudTOU3NBekjoV9C+srIyb7ooMCCVPXbsGBckhQalfXpmQUhz587l15HUd9RUnj9/nu/T9enlnj17lkcyo/dCoTgpbf/+/TyNmkZiB6UJQqLYgdSE0X3S/pQpU7gepYiT1CoQ+wne3t78uNAUkh6s/w5kCikusN9LhUQvdP3adbD0U+adV68yGqFKy+4wYTEhUF/IMqUlfnv6B/T6NIU36+xyRysJlTHMe6QlzHq14x8JbRLaQd3/c9y+IX1Nas6E0JiyIFhPFIdVOEYvQHgmYlpWVpY4jRaIp8C5dO/CovIzZogGYwoVhI5R/FT6vXz5cnFZApnF9F4IxEbJNDIqJIVEzaSQRowRghTSvQnLnhMsLCx4miCk4cOH83ySULh86SLus1pXzaQ+c/wILqT4gL68VtJLepGw6OQpRZGwy9GCXZwmXziE+kV2yUroneiJXT/s4uV/efIrOg1whHFAe1hFasI6TBMOSTpwzGwPlwgDPhq2trqhiUugm6cHkwUhP90rMYMgqXAFUF5Kk+xXUVkSsKSxIBwTLDHap9pOZWkreX/0myoJpRFjhOOCkOg8lEZbIU0AXZPSCML90vnoPgVhSkKBLB5SbBRM1tpAE4PdW8PZWAP+g/wQFRmJNatXNSgkiYdVNdg3NBi7xqVizmA/DB87FLeuim5EMh+9yH0/7sWe4aHYUhaGLUU+uHjhBmum/toCj+8bBBOcBCAr/U2gQDGoiY7UnzAzNYWaijIM9PX4qu6+vn4YMXyYzIICrly9itZfKODGkjxYKDV+7vL0VFPOnL+IS3NT8WTHeJyZGoN7D///DSemykgMk2TdX4UCWU5C1Eg7OzuoKStxPUBRI2nV+pjoqAaskMSY4aXQbvkFStxaQrfVF5g0TnbULVrIsQ0T5tIcH9xcnIPtjH3xkdKeDXrA/5UPcf9NKJCNTx0tEoiVrT3yXNvASrs9N02p1zzIz4/3h2QVpmVO8zOS4KDSGAGm38O4zZeYOnmizFr0+MlTHg1Su/mnUG7yH5i0+QI9POx5m1xZXYsZo0oQ4W2G9KBeuHZDHs5GEgq0HgJZIn5MGK4enkiz+x4m6u3EoT1DQ0N5r7l+QXqxHVU+QZRVcyTZt+RxWGNsWqCn2kc4y8zX+vlrHj2GZcsPocVYp9Hic7irf43g7m64eu06gi1aIIWVpxis8bYt0E/jExw88PyI+/80KJCPiEL9U0+XjAddDRWYainxnjDpKQpFvXL5sgYFc6KYYWHdAjnOrTHCuy1GdWjHLcNYJqhehs1ZX0Pa3X/xyjUkWzXB+M7tMa27Is8bbP49Ag2/RqZTK3aOdhjbqT0K3drwoLk+1soyLZ1/IhQmjh+H/Px87hInPWRkZARjYxO4urry4O3EpIT4OCm9RE1UVHcnLqQ8l9Y83PQ49vLpBRMT+pu0lBISWXB9TFpztlHI6eFMqCQYX+PvEGbRnP+mY2M6tePnIEH7WCr+v7P83hQKly5e4I5HEgZZdCYmJjA0NATFC6cFNEh4cXFxvEcvWTAnwgeDTL/jtT7dsRUy2ItOsG2JILPv0cuYCUniwxkFYu+s8RVnDuWh5pHCSvfSb4YBRs34bzqWwpo7IRR1RCdLVhnkgyUJCn/++SfiYmNEEfa7duWhpvX19eHo6Mgj7JMrJSUlBWmpybhX1/xUs5eu1vQTeGo0QRedb9HHoBn6GjZDD72mfF+z6Ud4IMEkGifuZKIFa2aiO6h8DRc1Eei3m/o3HB7sXB4a33AjxEqxEVS+/hfOn78gPsc/GdwtRL6qpMQEbiyQm0JY7oaERroqiZno1OEVeuwPK6vQ/N8KPI63KCZ4HVp/wY59itYfsX6ThLFB1qF2y6+g3EgBal8rQOPbD5ggP4BOvZjgQlxw9W8U0JKd4/adht6DfyIUyGlIAqAA7eTl7dG9G1SUFNGuXVtoqKtBRVkRbq4urMmL5/k4WNOYnJLKDQtLcxPoaKpBT1sDFmYmXI9RmjhvHeLjE5Ccmob4xCRERccgMioa/qwCUIeZzP9+rJ9GoAVMYuMSkMq6BfXP8U8Fj7BPbJIlwfcJ3D926wZGjRoNa3t3NGujjaZt9aGkYw9diw4wdegBS5e+sPEYCHvvQXDoGADHToFsGwgr94HQs+oCdUNnWDl4IysnH6dPncCjR7Uv9E3KIcer4r0nUk1NNf8qQDHhm7Y1gCKFHJeICy+Aole3VTdHe5auZuAEPQtvmNh3lyZXhwBOMIKZcz9oGbuioLAYlQ8rZDrP5ZDjVfFeE+nJ40coKCpBo+aaUgsrUPx+ZU0LKKsbQ0nNEG1UjaGoYwn37gORlJqB7JxctFYzgYWNKzw9O0FD3wYq+o7QMfeGkV13WLn2g42niFy23gEwteuEH3Zsl/raJIccr4P3mkjUc7544TzsHD04mdqpm6KpjjM+tgqGgmsOFDyHQMGrDApORfBKm40qZv7lTFuHNp2KkT5hOSKHzIKCRgxCcsYgKLUYYQmZ6O/rDzMrF76yiSbTSAZWHaHLzL5uvXxxt1zk75J1L3LI8SK896YdfVMiTfG05iEGxedCwTgMH+h2wwct9KCorgNbWxtYWllDXUcf37dVwVfftsBnX32DT778hpFPEab2bvjKuDs+tYtG0oj5SBmzGCnDZ+ELLU9W3hRNWutBU88cB/bve+eD9OX438X/jLOh9tEjLFksmvBAoA/HJydF4/jESJyaEoMLM+J5FOvTU+OwpTQIQ8M6oa+bBYz0tKGlawBbB0d09PaAlb0zGlkMQAvXCL6w862b1/lgJPlHYDn+Cv4niESeNcLSBXPx4UcfcSLNT+/LY/dfmZeG6wszcWluOs7PTuPRx0VIw41F2XiwIg/X56fhzLQ4HJ0YDV9PCzRv0RLeDuYYWpyPKvlyw3K8BfzPaKT7ldWYPjwPxYNc0fSbxuhhr4/S0I7I8XVHkLc54vo4Y82QUFSuL8WD1SVYUhCI+D4uyPJxw5yMAdhYGoL1JYFcU+mrtUNZgCtWzp/OR3XKup4ccrwO/meIRAuTbN+4BkMC3TCXESPDxxUXmRa6snQwkkMGoDSiO6o2DseighDcWjWEr9H0YN1QrB+dgpExvXB9cQ7uLM1FcZA3cga6Im+QO37Yuum5I23lkON18D9DJAJ51KpqH2Pe7BlYXeTPTLcc3Fiaz9fPqmTEubduGObkBuOXXZN4LKmqTSNxf22paD2txbl8Ta2tQwIwc+IYPKyulXvo5HhreC6RqPNNEVcf1j7Bw5rHqH5EM3hkz8H7b4JWZDpx+iyWl0bjJusb3ViSjzsrirk2urCoAAUhXXFibh6Ozc7BlSVFqFhXxoO0XWOku7qAiOSPNcsWMZNOHhZejreH5xKpihFn6tB8pOorINH0c3RorYBF82bzeSv18/7Xca8CC0bl4ezUGFxh5KDFa3dPSsHuWUU4u2IUbm2aiAvrJuHA8klYOTwJl+Zn4vI8ckikYctgXzmR5HjreC6RKpkJNXdcGQrsvuZr+/XT+Yqv71f9HsTq5qFeHv2K+WOH4qcRIdxkIw/dZUaqw7OycGhmFo7OzMT5Oel8ccdzs1NxZW4q9/StWbYCT3/5Te7uluOt4oVEomX9CsVE+hKL58/hE/rq5/27QZW+mmmQ8ht3MWp8GVyiTaDWrRls+7bFnPQeGBfdGTtHhvPFNs/MSMLZmcl8S2vhn5uZhF0jQjE6sgPmpHWHc5QGnKKNMGpiGW5eo7W55ANX5fjreAmRhnEi0fKLfbW/xMK5s/6rpt2d8jt87ZhVq5bDMUQfNlmqPCalRT8VOKaooXuUAdbl+eCn0aHYMy4Cs9L7YVmuD3YND2aaKhgbiv0wJbEntg4PwZ4xYVid3R9d4kzgOsQUXsX6MOrbHMa92yA1Pxw3Ll3n09TkmkqON8GLiTRepJGISH20PsecGVP4jOT6ed8mqCLTNMLKe9UoGZEL86DWcC2g1bNMeSA9k+5KsA1Uh0OEJmyStNEz3Bg/Dg3DSaaBzs3NwJ1Vg1G1aQQqNw7n3rwLrG90fmYqVuT5omOsHtyGGPHIVBQlkdaxc47ThCc7v3FYK4xlGpji6oi8eXJCyfHqkCISecQeVFRw7xwn0rjSOtOOEUnzM8yaMuFvI5LIfKvBpbOXEJDcE+bRrUHrABJ5eCi2QmNRfLwcXXjl68ImUA1OsRrwHGIC60R1lCV1xIUZaTg9Ow1nGaEuzs/C5VmZGJnVA/ZJOnBmZSz6qcE2QAW2QWqw8VeFlY8i3LLY+QebwZPBOUsDxn7fI6c4AQ/KH8jd43K8MjiRfv3td2xetwozMwdhTcFAzMv2w/SJY1CWEY8y52+R48KIpPEJZk6dhJpf/sS9iqq6Oc1/rdUWaZ8K1Dx8hAUL58At3AR2GSqieO8Ur5AigLItjwKaocWDHotC6enCLY2WvVCHhQ8jVJIBXEqN4R1vyO7fDztLgxEcawdrVs4tS5MvwulVYszXeLQNVIZnTt3iaLRIGoXdI6LSchp0nXQtOOSoo09yB9y+fgd378rJJMfLodCxU2ecPn0KSzN74/j4cBxgfYnD4yNxZno876gPC3BGoNHX6KHXDIuy+rNWPoHn2zAiFtvWr8Stu8/ivr8KiDzlrHI+qn6CLZs2oVu0M8wT2sOj2LCuQlNUVrZlGoIHrK6LLckrPK0fIwQKpYDVFNSakY4WQHVN04VZ1/Yw7tMeVnFasIvUhTUz3awHKjPtwzRQkDrsQlThnKBRF06eXY8CixJBaSE7uhY7N12LFvu2jmDarr8l5i+YgYf3RasZynoeOeQgKFDoLfrYumDScEyI6YKD46P595ZLs5JwYvUkLFyyFBuHR6F241CUryzG3VUluLNyMB8tcG9FIY5NjMHGZXOZlnrxUJtbTHtRRI5rF68jLjsQpkHN4VYgiu0p0gQibSBC3T5V+Fw9RgB12Aerwi2HkYxihbJjnFAEHgpZj/V3lGEdrIKgYl3MX2iPsCEGcKJzkRYjAvKtPjxpUdzBpnBJ1YN9BNM+dI0ipo2IUAQiZx2RPUvMYZuvCb+0Xqh+8EhOJjmeCwV7e3scn5WBExNJCyVy1/GGoRGYVpSAmdkBqFpLowZGoHrzKDzaNhYn5+XzbfXmkahYNxT31gzB5XnpWDd9GC5evckHgZKGopXIiDiPq5/iyKEjKB6SB9coM9jlss59PtMmRBTJ/g9FO2YagmsGcizk6cAmvg0s/BRZHjPurfPIN4Bzsh53NtgMUoFTDC3LTWYbMwkjdPgydF0LjZA83Bg9mZZxzWbEYaRxTtFnfSPWPwrRhFOiPtwyGFlytWET3Q4rli/G5o2b4BphBOdMWvqbkZuIxDQjJ3KOPuxS2qNLqC2unL/C+5GyXqQc/2woeHXohMO7t2NVUSAOjgnFrlGR2FAWjrmpvfDTqtk4fe4iDqyZjTvrR2HflFTsn5aGgzPScXNlCR6sK+Paica7XV+cy7XYtqH+WDk6AbPLsmFq3RamCW3hWsQqNCOPeR9ax4q0DKvIRCIiDlVaWoyMaQ1PWhI9sS08wsywdNki4Fdg6rTx0O7QlGkQZnIxbcLXbyRTLFsbrilasAnVgXeZGWyD1eAQoc41Fk8nk5C0S7YW7MM1uAYiIvK0XB2urVzCzbB56wb8zvp906ZPgHmIEjyHMCLTfZH5SH000lIULTtGCctWL3zhikFy/HMh9tpV1j7F5qWzcHBUIC7MTsHusdFYnO2DnWNiMTfHH1PKcrBmUiFOzUjBvVXFuM3Hr+Xy0QQX52bg7KwU/gH0+ORYHGJ9rJMTojAjtTvsElnFLWaVkpHFq9AAVn5qcIxW45qEKqtnqTnsMlVh66+Cscy8pJWXaIUK6kvVVj/CwqVzYcUqMZlvtoEq3OsmWhdGn/d9iDBerPLbhbN+UbgaemVqIphpPfc0Bm7O6cElmWmrIKZtsnQY4TSZqagBqyRljJ0zHPgNGDmxFOax7eGZxwhN69AQkerITWUc0xTROdwGl0kj3ZVrJDkaQkwksv9v3rmLtfOnYEmuLzYV+WBrWTB+HBWO24uzsG9MOBYxYp2dmYLzTPOcmx6P4xMicGx8OI6PC+PbI+PCmVYLwwGm2U5OjMLUlG6wTSLzra5lZ+YcLediOVAdDpkaMA9si+zBibhx+SZqqp8NPSISUTC8XTt2wiFYG27MDOMLXjBtQuVd0/Vh7cf6THVroJLZZxuqDutITeSPs8DShQ7owzSWS66hyGnB8tDC625pWqL1GNi+VbIqZi6YinFTh8EiugW8GFH5eg20QnGmtsjEY1ubpLbwS+zKVzWWu8PleB5kfpClOTo3bpcjM2Ig/I2aIMCkGXppfIpk/x7YuXo+Duz9iUfFv3H7LiPfPVxj23MXLmH/vj3Ytm4Zdq5ZhKzIAbBxV4LbYNb3KGZmXXRruIXpITTWB/llmTh29Bge1T6R2YGvqqzC5s0bYMU0lycjiTt516hy1zkgRBVdBDINSSPZBqrCIUyVaRJGPDLfyDSjVc2or1NXljsdiFiMLE7xKggI7gOL7hrstzqcEzThmMD6Q0yzWQ1S5YttmQS1QXpxDGqr/t6P0HL870MmkQgPax5hRFYcCu0aI8+1NfprfoKywhzUPm64WEl9kLPh4vkLGDtlOGbOnYzL5y7jcc0THtJVVv76eFjxEHv37IFjGNMi5ADg/RRGDupPMc3EycH7PwyMZKSR7KN0YRuhCZcMbThlM+IxrcMJRHnIpU5krFtLy7PQiJ3XEBZeREoddn5GsjpTjjs9mEnoOlgPXVOdcf7MhReu9iCHHITXItKQ/KxXItJfBQWiPnHkBByCWEVnFdqTkYJW+6OlhLmXjzQNefqyRWYYLUpnNlAZnSJUcOKnrti+1gOeSWpwrTMnOem4ZiLSCMf0YBWkCQdW1jpWFd5h2giPt8UgXzNkl6Vg4oxR2LJ1ozxMvByvhBcQ6TFG5iaiQIJIJXkZ/xUiUR+JQnAd3X8UDn76cMrSZ/0iA9iH01rcGkxr6MIxSh32ocwsI3MsSo+bYrTssyMji12cFpwTdeFMa3Un0cdXIqEBXJO14BitA4sIbQwYYIplaX1xbHQkLs5IwuXZyZib44e9Bw6h8tFT3H8g/wgrx6vjuUSiKd1jijKQZ9OIE2kAI9LgnDTU/BeIRCCP3fyFs2EeqATnFD04xurBgfVfaNVn9wwd2NM3oXh9OIaqw8SrHVxSaGArff8x5B9vnRjRXFN04BCiBidGLE6yGG04x2rANFgR8YF2ODc5jnsaL87LwPUleXi4pgQrCwfh8IRorC0ahM2b1qGSaebbjNiy7lEOOQQ8l0g02mHi0ALkWDfiyxkRkYoyU/4rRKpllXfx0vmwCGvPvwMJDgY+rIecCPyDqWg0gleBHl940zFW9J1JGJ/Hl1AvMITnEHNmChrzvhKt2k3r5XsOMYNVvAYmpXTH7UU5jET5uL+2DI+2jUHt1rH8exl9H9szIgizx5XgQTV5NWXfq4Dyyoe4tO0HHCsdhTs0DrFOm5U/rMC5FWuwPzYZ+6NTOI4OGYEbFy+xtIecpJT/2omTOJI/BLeuXccdYXwfSyuvqsStmzdxbPhY7A2IxL7IRJxbtRZ3Hjzg5U5NnY0re/aJrsnK3GH90+tnzuLEuCm4deMGy8fyTJ6B/azc/uhkHIhJwd7QGJyeMVd0/br7l+Ov4cVEGlaEbIFIWp+gICPpbycSffBcv24NrEKV4UEfR0sYERhxxEOHuIOBEYqcA2zrxUhhG64DZzLhiCw0Bo+21C8ik46+BZHTgchI35XqRk7QautW8ZqYnzcQVatLUL6qBI+2jMKJOdlYObEA55cU4/aSXFyeGY8l+X44evSoePGh+iivrsKFdRux07sXjuSW4Mcevrj3RPRO7z19jD0+IYw8I/EQYPtP8IBtf+obgAOJmbj/+2+4fvoMttt748SoiWzrxUlx5949hrvYZu2Ow1mFPB+d694vP+MmI+HVg4dw91EtfvDojjPzFvE0KnO3phpX9h3ENgsX3Lp6lRG8EjscO+DSjp2oZNe9/8dvuP/n74ygVYygck37tvBCIk0aXoysOiL5MCLlpyX8rUSqrKzCTzt/hF0oI0wRIwDXInWaiH8PMmWEELmyxR65PPowq8pHObhnMTKR1iHPG5GFaS/hHEIZrs3Ig0fEYtewiNDA/FwflC/Nx02GA5OTsGZoBFaVReKHkeE4MSEcc3P9cYJVdlneO9I4V/bux3Y7RoCKCl5ZqeLvC4nlpOFE8g3Dgfh03LxyhWues0tWYKOaCc6vXsc1C5W9evQYL0uk2OnVEw/+/BPHR03Ars79+HnqX5c0HpFmZ4fe2Khlwgm1w7ULfnDvhq2mDtiib8M12V1G8h1OnbBZzxI/ePbADheWh+W9wvqCdyqkl4+T483xEiINliJSXkocatjx+nnfBsg7duTAYbjGmPHJd0QeThpW4TmRSLMQKYT9ug+tHsyMc03WhIFnO1j0U+ZzjbhXj8jCyEMmIDf3uKeOmXy0z4jmmK2JQam9sXJkLrYV98eJ8WE4MzWWR2SloCpHRgVieU4/rF0yC3crKmU6Hkhz3Dh3HptZpT1SWIpjTOscLR6Gk+OnYLutJw5nF3EttGdgKA5l5KOcEe3m5SucPHcf14pI5NCBmX0pOD5sDC97YswkptF8sHtAENNcfzBydMWeQeG4W1vLtdG9X39m2ugwLm7ZzrTeI0ac7jg9dyH/TWYdEefK3gPSGsnBm+Xfhgp2L/d+fspBJJT3/d4eXkikySOkiZSTFPO3EYmcC7PnTYVlrCKfFtFAiwjj3gQi0cBWZqpRv8eNmX22PWmOEtNQNHyIiERpZP4R4WhcH2mrbB04xmnD2l8dVoHqMO7dDuvXr8FvvwNXbtzCydOncezEcZyh9RzvVUitDSkLZEqdXbwcVw8d4X0RqTRWqUm7ENGo0l/etVvcj+HpjEQX1m/CRdavIq0mWVboV13+cTcjUA3XHGfmLWZkzMPRwcNwlWkTMifpGpTv6pGj/F74ecvLcePCRX5fpJHo+Lllq5hpOYyXPVoynJF+CE7Pms9NR8nryvHmeAmRSsREGsiIlJUQ+bcQiYbePCh/iLAMH1iEtuXj4Sz7K8HKR4mZeRpwTtTmU8PdhQl/RBIiFfvtWcI0WI4JPLvbwDWVpVEfiTQR00g0nMgtRQNWvmp8cKtrmg4nqSeNp2Pn8Co2hmOeBjpGmGHtmmW4W06j1uUubzleH69FpMz4iLdOJDLpjh4+CtdgPbjkqPJpDzSQ1avElI9Y8BpiAq8iQ6ZJdGDeVwWOkWqi8XKklQiFzATMNUNGbhLckhhBBhtzbeXJjpv3bg/HaHV4F7H8OTrcRU7TLayDtGATqMFJah2liP4xHXD7Ks2GlbfQcjwf1OBfvnwZBw4cwMGDB3HmzBm+T/Xm1Ymk/QkyYsP48fp5/yru3bmP3MGpMAtpBZckLQ4igH2oGqz9lFnfRwk2YTqMMIawj9KGfUTdnCb6ppStBYdwVYwdMRze8RZMOzFNRRqJ9afIHW7aWw1WAVpwzTGG12ByNDBtRlqNPHoE1meyTFFBwbAU1Fa+foQkckAcOnQIixcvxvLly1+KZcuWYcWKFVwA72oQLN0zeSHpnpcuXYrTzKSV1YjQur07d+7k+ebPn49Nmzb9o4dL0UAB4gq9jwkTJuDChQug+Xy0WPZLiZRZRyRf7U+RHhPCjjfM+1dAw4FOnzgNj0gTuGar80rOXddkfold1Uw7MQ3jlq7NtIyiqB9EnjmmkdwL9OEUq41d239AeKEvHPLJvBN55Yg0ZBZa+yrxYUS8z1XXz+LgJqI23DI1YBOiiDnzZ6Cm6vUCYD59+hRpaWnidZuehw8++EBqf8+ePc9d2IzMyzc1MV+lLN3zkCFDxPcye/ZsPHokakSosvz8889YtWoVPv/8c57+73//G7NmzeLlKL3++Qhves9vWk7Af/ua1JAcP36cayRqDHfv3s3fyYuJNPKZRiIipUYF8REP9fO+KehhHt6rQljmANimq4icBPShlchEToa6waZ8LhPTJrZBqnCIYKZdATtGHjsaP1dkAOcIA5w5chplE/JgGd2SOyB4OZqrVGYGuyhdOERTbAdm9lEfijQSDVCl71NCf4tpMvs4Xfy460fuhpd1v7JAL/H+/fu89a4Peq/0FxAQIK60bm5uqKqqErfsVJ7ew5MnT7iWKCwsRI8ePeDp6Ym+fftixIgRvOWTJSMqS6HL6FobN27kLWPHjh3h7e2N4OBgLFy4kKfT9SQJQIQoLS0V39OcOXNQW1vL7+HHH39E06ZNxWklJSX45ZdfGlQ84Z5PnDiBoqIidO/end/zgAEDMH78eFy9elVMTgF0D6SFqRyZR1lZWejatSsv5+fnxxfdpnz0PML90rul9xITE4OIiAj88MMP/F1MnjwZvXr14mXp/dKzUsNEkHxWWdfs0qULKMQCXXPGjBkyr3nkyBHxNbdv347ffvuNa+/+/ftjy5YtDRrBlxBpiFgj+el8ipSIAEaktxUgkqnJmqcoHpkDi9i2rDJLeOhICxFJqJKT9y6LtIY+rAYoc+8bz0caixHFKUsNPeKd8fB2FcbNGgbL+PacZLws02w0nd2Tpq0PUoZDlCa8h1uwvpc5J5NbKjP5UvW4GekYy/pNYYqw7aGFw/sPvfJIdVkggVDlmzZtmrhCNmnSBPv37+eVS1LQJODc3FxxvkaNGqFnz55cgB06dMB//vMfcdrMmTO5rKg8EZEqCJkWQrq6ujr8/f0REhICU1NT8XFFRUWcOnVKLPz6RCLtQxWf8gnHIiMj+b3JMvnoHsrKysR5W7VqhdDQUOTk5MDHx0esyT7++GOsX7+eV1IqR8+ekJAgLqeqqoro6GhkZ2fzZybNR8eFd0XjLWk1xc2bN4vLfP/993xrbGyMuLg4hIWFQUlJSZxuaGiIGzducDII9xofHy9OF65JhKIGS7jmt99+K3VNapiEMpLvUk1NDevWreN5JN/JaxEpOdxfNPasXt43AU3kGzV2GDRdmsEuQoOPh3NO0IJbbp2zgGkd6gfRrFpyLlB0Veo7uWcywjGSiKaS63BNFp4zEL/W/oEpC8bCipGSayuezoiUpsE1mifTaE5xGrCP1IZLmgHcsigQijF3Sngy85A8fNbJ7ZExJBY1lW8W35wqOL3gc+fOoV27duKXT636r7/+2iA/VdSBAwfyPFT59u3bx80qIZ1a/T/++IP3T/71r3/xfAUFBbx1pIpPFZiOWVlZcY0i2UoS0f7880/e6lIeqjBkhvD1eCWIRCbnl19+yX8LaNy4MdauXcvvT5L0BCpLFZ/ykeaiY/RHxwXQX3FxMc9DDQE9F/0JmpkqIzU09CeUoeemPyKkcO7z58/ze5AkkrW1NX9W0rTCPdE7v3nzJtq3b8/zaGpq8kaGriF5TeEaL7omaX+6piSR6Dg1RHS+5zmkXkikKSNLkWklItIgRqSkUN+3RiS6ocr71cgqi4dhr9b8YytNJyfXtFumDlzT9eCUaggHZm45JzENROYafUwVtA05FNjWMkkJBSMzeHyHouGZXLuJzDpGJiIc/ebubtanoqkXVJadnwhlG84QrMFNRqOBzZFZlIhfnvzeoPK8CgTzgUwbQQDOzkxTsspNrWP9c9LzX79+XdyaUossSw7c/GXnMDIy4vkcHBw4uUiLCNch84SuXb8smXRkCgkkpH6RUIkkNRKhd+/evEJ27txZfKxTp05ciwiVh+6FtAuZp5JlXwYyiagSGhgYyEx/Hnbt2sUbDUkiTZ06VeazEiny8vJ4HtKERF4inK6urrjsq0C4piSRhg0bxt9Z/WtK4tWJpPsZEkJ8+AJd9e3l10XF/YeYOm88LCMUmQaiD6qMNHGMLDlMg5BDgMbVCX0kchzQMXJAkKbhZp+oH+WUowG3YHOcOn4KtZWPEVUwCLaZdQ4Lpolo3B3/IEsDXalPRGDE4n2sHNZPYmYikZeI5papywiljjnzpqO2puH7eB6IIFRJqJ8hVNgWLVpwu540ApGAtEB9EPFIOFFRUbwMtdykBYgkVHHpHZNWob+RI0eKhTpq1Ch+Pbo2tbJ0TGiBqdJTOQJdgyoX9Zcoz6effsrviUzW+kQiLxTlpWehukAV95NPPuFptN22bRs/TulUiYWyX331FW+p6Y/uic4rtPL0R89Px+k5qBz1Oahc69ateeNCf5RfshyVIdAxeiZqDCSJRMSg8xFJ6DkpD5U9efIkmjVrxvOQ1hKeX/Kawvt8lWtKEmn06NEyySuJFxNp1DMi+TMixQf1fytEogcqv3kXAbG9YRrYmptvHnmMRKQ1yOEggI+Vq3MG8El85CTQ4x48dwqnFaiEWbMn84p/9tQ5eEeZwiWb5ivR+Zj24gQSfaDl52CgUFyuWYZwZVve/8oz4t+uvMrM4cjSbYKV4JfcDdt+2IL79148Fo3eA7Xijo6O4pdOIFPpww8/5CCCSEI4Tm5wat1JQNSXkvTq6emxhsXJifd5hGNkbpH7WehjkcDp2tQnEfKQeUhmnp2dnbhSEegYmT5Cv4EqjCSRqBGg8wrPReemOkHODiEPdbLpXumZKe/cuXP5c1AaNSB0DdKqrq6u+Prrr8XlduzYwSsmnZfOOXz4cHEaaQ7q41E50rRC34rIS04MIj09oySRmjdvzrf0juk5zc3NxfdBIIuAytAz0DXpnkmjCOl0brqWcM3PPvuMH6eGRvKar00kDw8PrsqEVlBIkEWkOP++qKiq+ctEItA5Ku5VIrk4HAZB37EKrAqrgQwBmrCL1oVjtAYcY7XhGK/Lw2lZB2nC0kcF1oNU+fQKmo9k1LcVJs8eiyePf8bZM2dQPCIb5t2UYezfivWD9ODK4JbLtE2BKSOOviguAzunTYg2zPsosX6XIuxD2TVDlaHTpQVC430weEwWxs0YgT17fxKbNC8CCYxIQZ6qSZMmvRLoGwQJjRoU4TwCQRYtWsSdD9QpJw/emjVrxJ45Spe8Nu3TPRIxqEWmc6empiIpKYlrsb179/LKS+Uly9I+pY0bN47fC2kqyXsRzk0EOHz4MH82yjtv3jypdyKQj+6ZHA3CPdP7oPKyGmgCHac+HhE4MzMTiYmJGDx4MNfIgrYR8tYn0tixY7kWIROM+mF0TXJ80PNQZafy9d8TgdKuXLki85rUwEhek85BH1vpfdKzk7dPaISeBwVqSYYNLUNGehoK8/MwdsxozJs7Bzt27kJRRiKybb/hRArQ+xwxfr1w/6HIlXrzxg3cYDb+tWtXZd74q4DK8YeoeorC7AT4+hqgd4ItOqTbwDXTBPbZerDL0YZVTHs4RGmhd5wbxk4ejmuXrrMXXMPDdlFFFq4vRHO9c+sOlq9ZjEEJ3dAxUBNdEkzQIcUcnikmcGEmpHsiI1mQDvwSO2P0pDIcP3IcNVWPxK2YHO8P6hOJGoiXaYd3AQUyAagFpJaE3ISBgYG84+np3QE2ZoaItG3LMcisBSx0VGDr4MR99926deNqtB9T/9OnTeUPLOsCr4KamlosWLAAeb7OqNlQij9/nAj8OAGXZyZj6dB03K+oYa3jM3X9Kii/U46rN29jxYhEXJubgvu03Mv6MtxdXogL02KxoCwJ12/Lx9a97yBTizQCuarpmxONChFMxfcJCmTPkjuT1BypO/oG0a9fP+6xsbSwgK6WBjRUlKDDtgb6enBxdeEf/ehjmK+vL/9ukZ2VySvkm1RKWkpz5fJlUG3yAdS/+wRd9L9HWTdm0qk3hXKTD6HV/DPs2L4Nla/x8riZWn4X3b1d2Hk/xJEpiahYV4oH64bywJbnZyahp6MRtmzbjoesUyrrHHLI8TpQoM5bfn4+d42mpKQgPDycd2C7MPbb2trCQk8DhhrKMNNShom+NpycnbkniFoIykdf0IMCA7Bn909v8BHzFn7+5TeMHl6Ktl8qQK355/DQ+BolHm1g2b4RdFp+AUV2vKw4D4+fvNj9KAnKW5idxsvqtPgc7gatEdXRGPFdzJDYyRh2Gt9BubECendw4iu3C5qOTESK7U2jN8iEvXbjJq4zrUb9wmp2jNLe1IyV4/83FLS0tDiJyIuTnp7O3bGkach0s3V0QTfjthji3hLRls1goaUIO0dnsWlHnhwyBemjF/WtyOUo6yL1QRW3sroWyxbOg7+bMXrrfo1g8+8RYdUc4ZbN+e9Qi+bwN/0OHsqfIzm4P65cu860h/RQl+fh8eMnmDJpIlp+rgCjNl/CsA46rb6Ap8Y3sFFqhPaMZJEhgzjpaLxfzZNfsHvndsR3tUI/9Y/gz/qEQUaNEWDQCP00P0UX5Y8Q7G2B3T/uRBXrh8kJJYckFMjnPnHiRE4mGjZBfncy18g9SIQxMjVHd2ZuJdk0hYFaO9jaO4I8fTReidyjlJeGs0SEh+HwoUN4WRy4StaX2rR+LTqpf4kg4yaItWmBFPuWyHZqxZ0ahW6tUeDWBrkurZHm2Arxti05wbopfYCMsP54wMj0IhOSKjiRYmpZLiKNPkcgIyORx0Xtawxiv0s82iLBtgUGmXwHP4PGCOpgg0hvEwzS+QyJ1s2Q5cyu79oGxe4i0D1lsntLtGuJSOsW6KXyIdICRU4Xef9KDgEK5EufMnkS10jkdJB0ONDAPvLV6xsYQaV9G+jraLF9e/5lm/pQlIeGoNB4JzIJh5WVvtC84x628nuI6u4IX90vEc0qZppDK1ZxW2OYV1tM6Nwe07srYnJXRYzs0I5XZKrEVPHDzL9Dd+3G2LRuNSejrPMT6DvXkLRo+NFodUZEOsfoju0wrZsiJnZpj6HsOkRSIkag2ffoa9gMEUwL0n62cysMYUQb26kdv4+prAyVHcxMzSyWRvcRYtYU/UxaYf++vaiQGJIjxz8bCqRZNjANkZubwz139A1CcDiQU4GIRgMEtbW1+TAV0mAuLs8cDjRWjPLHxcUzzRSONatXMdNHdkWnFvxBZTXSAnqgt8anCGPmWzyrnFThKXYeVdghDNRHKmRaiSpvEqvgUUwj+Rt/iz6sAh86eICRVXYFrqqpxZrli5m2+4KRpBlimLZLdWiJHEYc0ix0DUG7kJbrb9QMvfWbIYARKpLt07UonfIWMQIS6HeGRBlfg68xwEaVf9Enk1DWfcjxzwP/IEtDJUYOH8Y1En3QI+1Crm0ad0XjxczMzDiRaKyUpaUl/+ou6XAICgriJiHNy4ljW/Ky0fec+v0IIhJ96E0L90M31U8w0Pg73g8KYYSiikwaikw9IgCRh4hGlZzyDdD/Bj1N2uH4iRNSgzMlQc6Ay1eu8n5XL62veLlA1t+ifhednzQPXYuu6cvSejES9TX8jucT3Yuob0aEibJmEMqwc5BZ6MOI14f15zwN2mHT5s2v5UmU4/83REOEnjzhX7vnzZmN8NAQpmFCuclGDgUa8kHk0dHR4UNXLCwsuJaq73AgJwVpM3Kl07yYyayzL1nRyCV96/YdOJpoQL2JAvRafwld1vkXoNf6C+izY3Sco5Xkb1Ee7e/+A1PV73Hu3HmZX5rJcTCspBCtPlaAQRsq++z8siCcVxbIMVH/mHCPBq0+heq3/8HOH37A68xdkuP/LxRozgv9kVaiAYb09+TxY+zbuwfjxoxGGCNWB6Z9TE1NoK+vz4lEGonK9erVE75k2gUHM40UzbRZCooK8rFu7Rp+LgKdVwANDLzDLpqTEodennZwNVWHjVYrmCk3gani1zBt3xgm7Rux3435vplSE9hotoSriRr6eNkjKTIIB/eLhuRLnlcSf7K0s2fPYPa0ySjISERGfDgSwvwQ1K8z/Ht6Y1APL/h190Bfbwd0cTRFRztDdLAxYNCHt7Ueh6elNtzMNPiWH2NpfbztETawJ4qzU7F88QJuvv7xh2igo6z7kOOfhJ/xfwAy3xkCPRCiAAAAAElFTkSuQmCC;" parent="1" vertex="1">
          <mxGeometry x="133.2" y="396" width="116.8" height="62.85" as="geometry" />
        </mxCell>
        <mxCell id="PMCTGa_TkbXGmHr1kwU6-8" value="Producer" style="rounded=1;whiteSpace=wrap;html=1;fillColor=#e1d5e7;strokeColor=#9673a6;fontSize=12;" parent="1" vertex="1">
          <mxGeometry x="50" y="555" width="120" height="30" as="geometry" />
        </mxCell>
        <mxCell id="PMCTGa_TkbXGmHr1kwU6-10" value="Consumer" style="rounded=1;whiteSpace=wrap;html=1;fillColor=#e1d5e7;strokeColor=#9673a6;fontSize=12;" parent="1" vertex="1">
          <mxGeometry x="189" y="555" width="120" height="30" as="geometry" />
        </mxCell>
        <mxCell id="PMCTGa_TkbXGmHr1kwU6-11" value="" style="shape=flexArrow;endArrow=classic;html=1;rounded=0;fillColor=#d5e8d4;strokeColor=#82b366;" parent="1" edge="1">
          <mxGeometry width="50" height="50" relative="1" as="geometry">
            <mxPoint x="87.80000000000001" y="354.5" as="sourcePoint" />
            <mxPoint x="132.75" y="352.5726536445926" as="targetPoint" />
          </mxGeometry>
        </mxCell>
        <mxCell id="PMCTGa_TkbXGmHr1kwU6-13" value="" style="shape=flexArrow;endArrow=classic;html=1;rounded=0;fillColor=#d5e8d4;strokeColor=#82b366;" parent="1" edge="1">
          <mxGeometry width="50" height="50" relative="1" as="geometry">
            <mxPoint x="252.8" y="357.5" as="sourcePoint" />
            <mxPoint x="297.75" y="355.5726536445926" as="targetPoint" />
          </mxGeometry>
        </mxCell>
        <mxCell id="nB3YECG1wfl-Ogu3rnfe-1" value="Gold Layer" style="rounded=0;whiteSpace=wrap;html=1;fillColor=#fff2cc;strokeColor=#d6b656;fontSize=15;" vertex="1" parent="1">
          <mxGeometry x="720" y="140" width="160" height="33" as="geometry" />
        </mxCell>
        <mxCell id="nB3YECG1wfl-Ogu3rnfe-2" value="" style="rounded=1;whiteSpace=wrap;html=1;fillColor=#fff2cc;strokeColor=#d6b656;dashed=1;" vertex="1" parent="1">
          <mxGeometry x="720" y="190" width="160" height="340" as="geometry" />
        </mxCell>
        <mxCell id="nB3YECG1wfl-Ogu3rnfe-3" value="fact_Sales" style="rounded=0;whiteSpace=wrap;html=1;fillColor=#fff2cc;strokeColor=#d6b656;fontSize=13;fontStyle=0;" vertex="1" parent="1">
          <mxGeometry x="730" y="246" width="140" height="33" as="geometry" />
        </mxCell>
        <mxCell id="nB3YECG1wfl-Ogu3rnfe-4" value="dim_Product" style="rounded=0;whiteSpace=wrap;html=1;fillColor=#fff2cc;strokeColor=#d6b656;fontSize=13;" vertex="1" parent="1">
          <mxGeometry x="730" y="416" width="140" height="33" as="geometry" />
        </mxCell>
        <mxCell id="nB3YECG1wfl-Ogu3rnfe-5" value="dim_Customer" style="rounded=0;whiteSpace=wrap;html=1;fillColor=#fff2cc;strokeColor=#d6b656;fontSize=13;fontStyle=0;" vertex="1" parent="1">
          <mxGeometry x="730" y="333.5" width="140" height="33" as="geometry" />
        </mxCell>
      </root>
    </mxGraphModel>
  </diagram>
</mxfile>
